<svg height="512" viewBox="0 0 1024 1024" version="1.1" xmlns="http://www.w3.org/2000/svg"><path fill="#AAA" d="M882.825189 610.350982 123.828748 610.350982c-21.907962 0-38.539758 19.925818-38.539758 44.49233 0 24.726148 17.266245 44.473911 38.539758 44.473911l665.050792 0-161.025417 184.461175c-15.07944 17.243733-15.159258 45.483914 0 62.84942 15.282055 17.482163 39.769772 17.383926 54.893214 0.019443l224.687342-257.331833c8.571213-8.116865 13.890358-20.459984 13.930267-34.313503l0-0.157589C921.364947 630.097722 904.097678 610.350982 882.825189 610.350982zM900.170229 331.151096 229.48409 331.151096l166.659741-190.926424c15.083533-17.246803 15.121396-45.486984-0.039909-62.85249-15.241123-17.482163-39.72884-17.383926-54.852282-0.020466L113.947703 337.679789c-8.016581 9.209756-11.669784 21.473057-11.151991 33.599236-0.080841 1.447978-0.160659 2.877537-0.160659 4.344958 0 24.727171 17.266245 44.472887 38.539758 44.472887l758.99644 0c21.906939 0 38.538735-19.904329 38.538735-44.472887C938.708963 350.897835 921.442718 331.151096 900.170229 331.151096z" /></svg>
